<svg width="64" height="64" viewBox="0 0 64 64" fill="none" xmlns="http://www.w3.org/2000/svg">
  <rect width="64" height="64" rx="18" fill="url(#bg)"/>
  <rect x="10.5" y="10.5" width="43" height="43" rx="15" fill="url(#panel)"/>
  <path d="M35 19C28.3726 19 23 24.3726 23 31C23 37.6274 28.3726 43 35 43" stroke="url(#accent)" stroke-width="6" stroke-linecap="round"/>
  <rect x="37" y="24" width="8" height="8" rx="2.75" fill="#F8FAFC"/>
  <rect x="37" y="35" width="8" height="8" rx="2.75" fill="#BAE6FD"/>
  <path d="M47 15L48.4571 18.5429L52 20L48.4571 21.4571L47 25L45.5429 21.4571L42 20L45.5429 18.5429L47 15Z" fill="#FBBF24"/>
  <defs>
    <linearGradient id="bg" x1="6" y1="5" x2="58" y2="58" gradientUnits="userSpaceOnUse">
      <stop stop-color="#1D4ED8"/>
      <stop offset="0.55" stop-color="#0F172A"/>
      <stop offset="1" stop-color="#020617"/>
    </linearGradient>
    <linearGradient id="panel" x1="13" y1="12" x2="51" y2="52" gradientUnits="userSpaceOnUse">
      <stop stop-color="#0F172A" stop-opacity="0.16"/>
      <stop offset="1" stop-color="#0F172A" stop-opacity="0.38"/>
    </linearGradient>
    <linearGradient id="accent" x1="23" y1="19" x2="41" y2="43" gradientUnits="userSpaceOnUse">
      <stop stop-color="#FFFFFF"/>
      <stop offset="1" stop-color="#93C5FD"/>
    </linearGradient>
  </defs>
</svg>
