<svg width="360" height="84" viewBox="0 0 360 84" fill="none" xmlns="http://www.w3.org/2000/svg">
  <rect width="360" height="84" rx="24" fill="#F8FAFC"/>
  <rect x="12" y="12" width="60" height="60" rx="18" fill="url(#paint0_linear_1_1)"/>
  <path d="M30 28C30 24.6863 32.6863 22 36 22H48C51.3137 22 54 24.6863 54 28V32H30V28Z" fill="white" fill-opacity="0.96"/>
  <path d="M30 38H54V54C54 57.3137 51.3137 60 48 60H36C32.6863 60 30 57.3137 30 54V38Z" fill="white" fill-opacity="0.96"/>
  <rect x="35" y="43" width="6" height="6" rx="2" fill="#2563EB"/>
  <rect x="44" y="43" width="6" height="6" rx="2" fill="#2563EB"/>
  <rect x="35" y="52" width="15" height="3" rx="1.5" fill="#2563EB"/>
  <path d="M58 24L61.5 31L69 32L63.5 37L65 44L58 40.2L51 44L52.5 37L47 32L54.5 31L58 24Z" fill="#F59E0B"/>
  <path d="M104.98 34.42C104.98 27.9 109.9 23.1 117.08 23.1C124.28 23.1 129.16 27.9 129.16 34.42C129.16 40.94 124.28 45.78 117.08 45.78C109.9 45.78 104.98 40.94 104.98 34.42ZM123.46 34.42C123.46 30.8 120.94 28.24 117.08 28.24C113.22 28.24 110.7 30.8 110.7 34.42C110.7 38.08 113.22 40.64 117.08 40.64C120.94 40.64 123.46 38.08 123.46 34.42ZM132.558 45.3V23.58H144.798C149.598 23.58 152.878 26.54 152.878 31.06C152.878 35.58 149.598 38.58 144.798 38.58H138.198V45.3H132.558ZM138.198 33.78H143.958C145.878 33.78 147.238 32.74 147.238 31.06C147.238 29.38 145.878 28.38 143.958 28.38H138.198V33.78ZM156.162 45.3V23.58H172.922V28.34H161.802V31.94H171.522V36.34H161.802V40.54H173.362V45.3H156.162ZM185.149 45.3L177.589 23.58H183.589L188.389 39.18L193.309 23.58H198.629L203.589 39.18L208.349 23.58H214.269L206.709 45.3H200.829L195.949 30.78L191.029 45.3H185.149ZM216.823 45.3V23.58H233.583V28.34H222.463V31.94H232.183V36.34H222.463V40.54H234.023V45.3H216.823ZM237.61 45.3V23.58H247.93C252.49 23.58 255.53 26.26 255.53 30.22C255.53 33.06 253.89 35.14 251.17 35.9C252.49 36.42 253.33 37.5 253.97 38.86L256.97 45.3H250.89L248.41 39.86C247.89 38.7 247.25 38.26 245.97 38.26H243.25V45.3H237.61ZM243.25 33.82H247.09C248.97 33.82 249.97 32.98 249.97 31.34C249.97 29.78 248.97 29.02 247.09 29.02H243.25V33.82ZM264.994 45.3V28.46H258.394V23.58H277.194V28.46H270.634V45.3H264.994ZM279.825 38.18H285.345C285.585 40.1 286.865 41.02 289.145 41.02C291.225 41.02 292.385 40.3 292.385 39.02C292.385 37.66 291.225 37.34 287.625 36.62C282.865 35.66 280.465 33.94 280.465 29.86C280.465 25.78 284.105 23.1 289.065 23.1C294.105 23.1 297.665 25.82 298.065 30.26H292.585C292.225 28.58 291.025 27.82 289.105 27.82C287.185 27.82 286.145 28.5 286.145 29.66C286.145 30.98 287.505 31.3 290.825 31.98C295.705 32.98 298.145 34.74 298.145 38.86C298.145 43.14 294.305 45.78 289.025 45.78C283.545 45.78 279.985 43.06 279.825 38.18Z" fill="#0F172A"/>
  <path d="M103.8 58.1H138.7" stroke="#CBD5E1" stroke-width="2" stroke-linecap="round"/>
  <path d="M146 58.1H199.6" stroke="#CBD5E1" stroke-width="2" stroke-linecap="round"/>
  <path d="M206.9 58.1H255.2" stroke="#CBD5E1" stroke-width="2" stroke-linecap="round"/>
  <path d="M262.5 58.1H297.8" stroke="#CBD5E1" stroke-width="2" stroke-linecap="round"/>
  <defs>
    <linearGradient id="paint0_linear_1_1" x1="12" y1="12" x2="72" y2="72" gradientUnits="userSpaceOnUse">
      <stop stop-color="#2563EB"/>
      <stop offset="1" stop-color="#0F172A"/>
    </linearGradient>
  </defs>
</svg>
