<svg width="96" height="96" viewBox="0 0 96 96" fill="none" xmlns="http://www.w3.org/2000/svg">
  <rect width="96" height="96" rx="28" fill="url(#bg)"/>
  <rect x="16" y="16" width="64" height="64" rx="22" fill="url(#panel)"/>
  <path d="M52 28C42.0589 28 34 36.0589 34 46C34 55.9411 42.0589 64 52 64" stroke="url(#accent)" stroke-width="8" stroke-linecap="round"/>
  <rect x="54" y="35" width="12" height="12" rx="4" fill="#F8FAFC"/>
  <rect x="54" y="51" width="12" height="12" rx="4" fill="#BAE6FD"/>
  <path d="M69 24L71.2451 28.7549L76 31L71.2451 33.2451L69 38L66.7549 33.2451L62 31L66.7549 28.7549L69 24Z" fill="#FBBF24"/>
  <defs>
    <linearGradient id="bg" x1="10" y1="8" x2="84" y2="88" gradientUnits="userSpaceOnUse">
      <stop stop-color="#1D4ED8"/>
      <stop offset="0.55" stop-color="#0F172A"/>
      <stop offset="1" stop-color="#020617"/>
    </linearGradient>
    <linearGradient id="panel" x1="20" y1="18" x2="76" y2="78" gradientUnits="userSpaceOnUse">
      <stop stop-color="#0F172A" stop-opacity="0.15"/>
      <stop offset="1" stop-color="#0F172A" stop-opacity="0.38"/>
    </linearGradient>
    <linearGradient id="accent" x1="34" y1="28" x2="60" y2="64" gradientUnits="userSpaceOnUse">
      <stop stop-color="#FFFFFF"/>
      <stop offset="1" stop-color="#93C5FD"/>
    </linearGradient>
  </defs>
</svg>
