<svg width="360" height="84" viewBox="0 0 360 84" fill="none" xmlns="http://www.w3.org/2000/svg">
  <rect width="360" height="84" rx="24" fill="#F8FAFC"/>
  <rect x="12" y="12" width="60" height="60" rx="18" fill="url(#paint0_linear_1_1)"/>
  <path d="M30 28C30 24.6863 32.6863 22 36 22H48C51.3137 22 54 24.6863 54 28V32H30V28Z" fill="white" fill-opacity="0.96"/>
  <path d="M30 38H54V54C54 57.3137 51.3137 60 48 60H36C32.6863 60 30 57.3137 30 54V38Z" fill="white" fill-opacity="0.96"/>
  <rect x="35" y="43" width="6" height="6" rx="2" fill="#2563EB"/>
  <rect x="44" y="43" width="6" height="6" rx="2" fill="#2563EB"/>
  <rect x="35" y="52" width="15" height="3" rx="1.5" fill="#2563EB"/>
  <path d="M58 24L61.5 31L69 32L63.5 37L65 44L58 40.2L51 44L52.5 37L47 32L54.5 31L58 24Z" fill="#F59E0B"/>
  <text x="100" y="43" fill="#0F172A" font-family="Cairo, Arial, sans-serif" font-size="30" font-weight="800">Calclyo</text>
  <text x="102" y="61" fill="#64748B" font-family="Cairo, Arial, sans-serif" font-size="12" font-weight="700">Arabic Tools Platform</text>
  <defs>
    <linearGradient id="paint0_linear_1_1" x1="12" y1="12" x2="72" y2="72" gradientUnits="userSpaceOnUse">
      <stop stop-color="#2563EB"/>
      <stop offset="1" stop-color="#0F172A"/>
    </linearGradient>
  </defs>
</svg>
