<svg width="420" height="88" viewBox="0 0 420 88" fill="none" xmlns="http://www.w3.org/2000/svg">
  <rect x="4" y="6" width="76" height="76" rx="24" fill="url(#bg)"/>
  <rect x="17" y="19" width="50" height="50" rx="18" fill="url(#panel)"/>
  <path d="M45 28C37.268 28 31 34.268 31 42C31 49.732 37.268 56 45 56" stroke="url(#accent)" stroke-width="7" stroke-linecap="round"/>
  <rect x="47" y="33" width="10" height="10" rx="3.5" fill="#F8FAFC"/>
  <rect x="47" y="47" width="10" height="10" rx="3.5" fill="#BAE6FD"/>
  <path d="M65 21L67.0971 25.9029L72 28L67.0971 30.0971L65 35L62.9029 30.0971L58 28L62.9029 25.9029L65 21Z" fill="#FBBF24"/>
  <text x="100" y="39" fill="#0F172A" font-family="Cairo, Arial, sans-serif" font-size="31" font-weight="800" letter-spacing="0.5">Calclyo</text>
  <text x="100" y="62" fill="#475569" font-family="Cairo, Arial, sans-serif" font-size="16" font-weight="700">أدوات ذكية للحساب والتحويل</text>
  <defs>
    <linearGradient id="bg" x1="12" y1="12" x2="72" y2="74" gradientUnits="userSpaceOnUse">
      <stop stop-color="#1D4ED8"/>
      <stop offset="0.55" stop-color="#0F172A"/>
      <stop offset="1" stop-color="#020617"/>
    </linearGradient>
    <linearGradient id="panel" x1="20" y1="21" x2="64" y2="67" gradientUnits="userSpaceOnUse">
      <stop stop-color="#0F172A" stop-opacity="0.16"/>
      <stop offset="1" stop-color="#0F172A" stop-opacity="0.42"/>
    </linearGradient>
    <linearGradient id="accent" x1="31" y1="28" x2="52" y2="56" gradientUnits="userSpaceOnUse">
      <stop stop-color="#FFFFFF"/>
      <stop offset="1" stop-color="#93C5FD"/>
    </linearGradient>
  </defs>
</svg>
